<svg width="16" height="29" viewBox="0 0 16 29" fill="none" xmlns="http://www.w3.org/2000/svg">
<path fill-rule="evenodd" clip-rule="evenodd" d="M8.61258 0.449736C7.05329 1.00262 5.3989 2.7184 4.93615 4.26243C4.71365 5.00517 4.5316 6.59249 4.5316 7.78981V9.96657H2.4024H0.273193V12.8055V15.6444H2.4024H4.5316V22.0321V28.4197H7.37054H10.2095V22.0321V15.6444H12.3319C14.7223 15.6444 14.5928 15.8205 15.0069 12.0071L15.2287 9.96657H12.7191H10.2095V7.85759C10.2095 5.29368 10.8749 4.64356 13.4991 4.64356H15.2113L15.1059 2.42564L15.0002 0.207717L12.3387 0.139937C10.8749 0.102676 9.19811 0.242139 8.61258 0.449736Z" fill="white"/>
</svg>
