<svg width="26" height="26" viewBox="0 0 26 26" fill="none" xmlns="http://www.w3.org/2000/svg">
<path fill-rule="evenodd" clip-rule="evenodd" d="M5.00417 0.825202C3.33878 1.32344 1.14251 3.6542 0.663789 5.43103C0.410059 6.37426 0.306438 9.52371 0.379186 14.0827C0.492389 21.1779 0.503035 21.2659 1.44556 22.6886C1.96899 23.4792 3.00698 24.5051 3.7522 24.9682C5.07302 25.7894 5.30545 25.8103 13.0912 25.8103C20.877 25.8103 21.1095 25.7894 22.4303 24.9682C23.1755 24.5051 24.2135 23.4785 24.7369 22.6875V22.6875C25.3571 21.7827 25.689 20.7114 25.689 19.6144V13.2385C25.689 5.42535 25.6685 5.19468 24.8469 3.87351C24.3838 3.12829 23.3579 2.0903 22.5673 1.56687C21.1322 0.616184 21.1183 0.614765 13.6505 0.545566C9.53689 0.50724 5.64613 0.633218 5.00417 0.825202ZM22.6585 3.79154C23.6014 4.92747 22.2167 6.67235 20.987 5.89803C20.1985 5.40157 20.0058 4.4562 20.5577 3.79154C21.1056 3.13113 22.1106 3.13113 22.6585 3.79154ZM16.9895 7.31182C19.1052 8.71177 20.0112 10.4808 20.0112 13.2126C20.0112 15.9798 19.1034 17.7144 16.8883 19.1804C14.9085 20.4905 11.4429 20.5416 9.43008 19.2904C6.74373 17.6204 5.48147 14.3045 6.33102 11.1497C6.81932 9.33599 8.99111 7.01267 10.682 6.49527C12.5426 5.92571 15.4674 6.30435 16.9895 7.31182ZM11.4943 9.27459C9.91483 9.96836 9.01027 11.4102 9.01027 13.2342C9.01027 14.725 9.17564 15.1388 10.1703 16.1335C11.1689 17.1321 11.576 17.2935 13.0912 17.2935C14.6065 17.2935 15.0136 17.1321 16.0122 16.1335C17.0108 15.1349 17.1722 14.7278 17.1722 13.2126C17.1722 11.7175 17.0065 11.2863 16.0746 10.3541C14.9028 9.18233 12.8212 8.6919 11.4943 9.27459Z" fill="white"/>
</svg>
