<svg width="16" height="16" viewBox="0 0 16 16" fill="none" xmlns="http://www.w3.org/2000/svg">
<path fill-rule="evenodd" clip-rule="evenodd" d="M1.96124 0.435988C1.08924 0.744315 0.568925 1.67871 0.788099 2.54267C0.946166 3.1657 1.36872 3.63604 1.95734 3.84415C2.28513 3.96002 2.78859 3.96002 3.11638 3.84415C3.97006 3.54233 4.46748 2.67974 4.30298 1.78641C4.28479 1.68753 4.21049 1.48643 4.13792 1.33954C3.92578 0.910264 3.57312 0.598831 3.11638 0.437323C2.79045 0.322117 2.28493 0.321516 1.96124 0.435988ZM11.5017 5.09682C10.5808 5.2126 9.66509 5.74897 9.23404 6.42508C9.15157 6.5544 9.07317 6.66113 9.05981 6.6622C9.04645 6.6633 9.03146 6.35995 9.02649 5.98816L9.01746 5.31215H7.53475H6.05205V10.3196V15.3271H7.60139H9.15074L9.16846 12.3727C9.18596 9.45751 9.18719 9.41481 9.25953 9.1565C9.42402 8.56915 9.67958 8.21302 10.0784 8.01556C10.8583 7.62934 11.8688 7.79636 12.2507 8.37463C12.3688 8.55353 12.4824 8.86449 12.5535 9.2043C12.6062 9.45588 12.6142 9.78864 12.6308 12.4061L12.6493 15.3271H14.1819H15.7146V12.1056C15.7146 9.6696 15.704 8.79462 15.6713 8.51694C15.4266 6.44648 14.6389 5.46494 12.9658 5.14576C12.6224 5.08023 11.8413 5.05413 11.5017 5.09682ZM0.986382 5.33685C0.977586 5.35999 0.974254 7.61726 0.978952 10.353L0.987515 15.3271H2.53686H4.08621V10.3196V5.31215L2.54426 5.30347C1.32847 5.29662 0.998977 5.30367 0.986382 5.33685Z" fill="white"/>
</svg>
