<svg width="26" height="27" viewBox="0 0 26 27" fill="none" xmlns="http://www.w3.org/2000/svg">
<path fill-rule="evenodd" clip-rule="evenodd" d="M2.09849 0.538696C1.13639 0.538696 0.356445 1.31864 0.356445 2.28074V13.3139V24.3471C0.356445 25.3092 1.13639 26.0891 2.09849 26.0891H13.1317H24.1649C25.127 26.0891 25.9069 25.3092 25.9069 24.3471V13.3139V2.28074C25.9069 1.31864 25.127 0.538696 24.1649 0.538696H13.1317H2.09849ZM8.18695 5.51926C9.23629 6.08101 9.10996 7.89829 7.98609 8.41036C6.63192 9.02748 5.32459 8.31065 5.32459 6.9515C5.32459 5.42203 6.70999 4.72897 8.18695 5.51926ZM8.87326 15.4431V18.6369C8.87326 19.6169 8.07886 20.4113 7.09892 20.4113C6.11899 20.4113 5.32459 19.6169 5.32459 18.6369V15.4431V12.2493C5.32459 11.2694 6.11899 10.475 7.09892 10.475C8.07886 10.475 8.87326 11.2694 8.87326 12.2493V15.4431ZM15.2609 11.0073C15.2609 11.6695 15.5955 11.6666 16.482 10.9959C16.861 10.7095 17.63 10.475 18.191 10.475C20.7748 10.475 21.6485 12.1308 21.6485 17.0287V18.6497C21.6485 19.6226 20.8598 20.4113 19.8869 20.4113C18.9058 20.4113 18.1025 19.6312 18.0737 18.6505L18.0239 16.9513L17.9512 14.4732C17.9346 13.9096 17.5067 13.4436 16.9465 13.3792C15.6622 13.2312 15.2609 14.2774 15.2609 17.7728V18.6369C15.2609 19.6169 14.4665 20.4113 13.4865 20.4113C12.5066 20.4113 11.7122 19.6169 11.7122 18.6369V15.4431V12.2493C11.7122 11.2694 12.5066 10.475 13.4865 10.475C14.8272 10.475 15.2609 10.6052 15.2609 11.0073Z" fill="white"/>
</svg>
