<svg width="16" height="16" viewBox="0 0 16 16" fill="none" xmlns="http://www.w3.org/2000/svg">
<path d="M8.22634 0.432709C4.0928 0.432709 0.738037 3.78747 0.738037 7.92101C0.738037 12.0545 4.0928 15.4093 8.22634 15.4093H11.9705V13.9116H8.22634C4.97641 13.9116 2.2357 11.1709 2.2357 7.92101C2.2357 4.67109 4.97641 1.93037 8.22634 1.93037C11.4763 1.93037 14.217 4.67109 14.217 7.92101V8.99184C14.217 9.58341 13.6853 10.1675 13.0937 10.1675C12.5022 10.1675 11.9705 9.58341 11.9705 8.99184V7.92101C11.9705 5.85424 10.2931 4.17686 8.22634 4.17686C6.15957 4.17686 4.48219 5.85424 4.48219 7.92101C4.48219 9.98778 6.15957 11.6652 8.22634 11.6652C9.25972 11.6652 10.2032 11.2458 10.8772 10.5644C11.3639 11.2308 12.2026 11.6652 13.0937 11.6652C14.5689 11.6652 15.7146 10.467 15.7146 8.99184V7.92101C15.7146 3.78747 12.3599 0.432709 8.22634 0.432709ZM8.22634 10.1675C6.98328 10.1675 5.97985 9.16407 5.97985 7.92101C5.97985 6.67795 6.98328 5.67452 8.22634 5.67452C9.46939 5.67452 10.4728 6.67795 10.4728 7.92101C10.4728 9.16407 9.46939 10.1675 8.22634 10.1675Z" fill="white"/>
</svg>
